<svg width="28" height="16" viewBox="0 0 28 16" fill="none" xmlns="http://www.w3.org/2000/svg">
<g clip-path="url(#clip0_9_213)">
<path d="M0.792114 15.2153V5.52642L5.57874 0.784698H27.2079V10.0844L22.0288 15.2153H0.792114Z" fill="#4E16A8"/>
<path d="M26.4157 1.5694V9.75951L21.7008 14.4306H1.58426V5.85135L5.90677 1.5694H26.4157ZM28 0H26.4157H5.90677H5.25038L4.78627 0.459762L0.464116 4.74172L0 5.20148V5.85171V14.431V16.0004H1.58426H21.7008H22.3572L22.8213 15.5406L27.5362 10.8695L28.0004 10.4097V9.75986V1.5694V0H28Z" fill="#4E16A8"/>
<path d="M11.1409 6.86504V3.92884H6.89402L3.96602 6.82902V12.0704H8.09482L9.51669 10.6619H7.33653V8.30282H13.5231V14.4306H11.1409V12.3904L9.08138 14.4306H1.58423V5.85135L5.90674 1.5694H13.5231V6.86504H11.1409Z" fill="white"/>
<path d="M19.4954 1.5694L14.8895 6.13206V14.4306H21.7008L26.4157 9.75951V1.5694H19.4954ZM24.0339 8.78256L20.7138 12.0704H17.2717V7.10972L20.482 3.92884H24.0339V8.78256Z" fill="white"/>
</g>
<defs>
<clipPath id="clip0_9_213">
<rect width="28" height="16" fill="white"/>
</clipPath>
</defs>
</svg>
