<svg width="65" height="39" viewBox="0 0 65 39" fill="none" xmlns="http://www.w3.org/2000/svg">
<g clip-path="url(#clip0_6_79)">
<path d="M1.83887 37.0872V13.4705L12.9507 1.9126H63.1611V24.5807L51.1382 37.0872H1.83887Z" fill="black"/>
<path d="M61.3223 3.8254V23.7888L50.3768 35.1746H3.67775V14.2627L13.7121 3.8254H61.3223ZM65 0H61.3223H13.7121H12.1884L11.111 1.12067L1.07741 11.5579L0 12.6786V14.2635V35.1755V39.0009H3.67775H50.3768H51.9005L52.9779 37.8802L63.9234 26.4944L65.0008 25.3737V23.7897V3.8254V0H65Z" fill="black"/>
<path d="M25.8629 16.7333V9.57634H16.004L9.20689 16.6455V29.4215H18.7916L22.0924 25.9882H17.0313V20.2379H31.3929V35.1744H25.8629V30.2014L21.0818 35.1744H3.67773V14.2625L13.7121 3.8252H31.3929V16.7333H25.8629Z" fill="white"/>
<path d="M45.2572 3.8252L34.5649 14.9467V35.1744H50.3767L61.3222 23.7886V3.8252H45.2572ZM55.7931 21.4073L48.0857 29.4215H40.0949V17.3297L47.5474 9.57634H55.7931V21.4073Z" fill="white"/>
</g>
<defs>
<clipPath id="clip0_6_79">
<rect width="65" height="39" fill="white"/>
</clipPath>
</defs>
</svg>
